{"title":"Bhoothnath Returns (2014) DVDScr - XviD - Mp3 - 1CD{VikkyMaxx}[S","uid":9943503,"size":1692681187,"categoryP":"video","categoryS":"movies","magnet":"?xt=urn:btih:2eee560c1a4f93a079a6a2929eda4aed49fb17fa&amp;dn=Bhoothnath+Returns+%282014%29+DVDScr+-+XviD+-+Mp3+-+1CD%7BVikkyMaxx%7D%5BS&amp;tr=udp%3A%2F%2Ftracker.openbittorrent.com%3A80&amp;tr=udp%3A%2F%2Fopen.demonii.com%3A1337&amp;tr=udp%3A%2F%2Ftracker.coppersurfer.tk%3A6969&amp;tr=udp%3A%2F%2Fexodus.desync.com%3A6969","seeders":1,"leechers":0,"uploader":"shailendramaxx","files":-1,"time":1397283481,"description":"VikkyMaxx SilverRG Presents\n\n\nGeneral:-\n \nComplete name :Bhoothnath Returns (2014) DVDScr - XviD - Mp3 - 1CD{VikkyMaxx}[SilverRG]\nFormat : AVI \nFormat/Info : Audio Video Interleave \nFormat profile : OpenDML \nFile size : 1.56 GiB \nDuration : 2h 28mn \nOverall bit rate : 1 503 Kbps \nWriting application : Lavf52.61.0 \n\nVideo:-\n \nID : 0 \nFormat : MPEG-4 Visual \nFormat profile : Simple@L3 \nFormat settings, BVOP : No \nFormat settings, QPel : No \nFormat settings, GMC : No warppoints \nFormat settings, Matrix : Default (H.263) \nCodec ID : XVID \nCodec ID/Hint : XviD \nDuration : 2h 28mn \nBit rate : 1 360 Kbps \nWidth : 640 pixels \nHeight : 304 pixels \nDisplay aspect ratio : 16:9 \nFrame rate : 29.970 fps \nColor space : YUV \nChroma subsampling : 4:2:0 \nBit depth : 8 bits \nScan type : Progressive \nCompression mode : Lossy \nBits/(Pixel*Frame) : 0.233 \nStream size : 1.41 GiB (91%) \nWriting library : XviD 1.2.1 (UTC 2008-12-04) \n\nAudio:-\n \nID : 1 \nFormat : MPEG Audio \nFormat version : Version 1 \nFormat profile : Layer 3 \nMode : Joint stereo \nMode extension : MS Stereo \nCodec ID : 55 \nCodec ID/Hint : MP3 \nDuration : 2h 28mn \nBit rate mode : Constant \nBit rate : 128 Kbps \nChannel(s) : 2 channels \nSampling rate : 44.1 KHz \nCompression mode : Lossy \nStream size : 136 MiB (9%) \nAlignment : Aligned on interleaves \nInterleave, duration : 26 ms (0.78 video frame) \nInterleave, preload duration : 52 ms \nWriting library : LAME3.97 \nLanguage: HINDI\n\nSCREENS:-\n &lt;a href=&quot;\nhttp://i.imgur.com/txpGoKm.jpg&quot; rel=&quot;nofollow&quot; target=&quot;_NEW&quot;&gt;\nhttp://i.imgur.com/txpGoKm.jpg&lt;/a&gt;\n &lt;a href=&quot;\nhttp://i.imgur.com/qnt9nsI.jpg&quot; rel=&quot;nofollow&quot; target=&quot;_NEW&quot;&gt;\nhttp://i.imgur.com/qnt9nsI.jpg&lt;/a&gt;\n &lt;a href=&quot;\nhttp://i.imgur.com/jkfRuiC.jpg&quot; rel=&quot;nofollow&quot; target=&quot;_NEW&quot;&gt;\nhttp://i.imgur.com/jkfRuiC.jpg&lt;/a&gt;\n &lt;a href=&quot;\nhttp://i.imgur.com/DrG6d98.jpg&quot; rel=&quot;nofollow&quot; target=&quot;_NEW&quot;&gt;\nhttp://i.imgur.com/DrG6d98.jpg&lt;/a&gt;\n &lt;a href=&quot;\nhttp://i.imgur.com/YPWuP7X.jpg&quot; rel=&quot;nofollow&quot; target=&quot;_NEW&quot;&gt;\nhttp://i.imgur.com/YPWuP7X.jpg&lt;/a&gt;\n &lt;a href=&quot;\nhttp://i.imgur.com/ML1LzaR.jpg&quot; rel=&quot;nofollow&quot; target=&quot;_NEW&quot;&gt;\nhttp://i.imgur.com/ML1LzaR.jpg&lt;/a&gt;\n &lt;a href=&quot;\nhttp://i.imgur.com/fyGyetq.jpg&quot; rel=&quot;nofollow&quot; target=&quot;_NEW&quot;&gt;\nhttp://i.imgur.com/fyGyetq.jpg&lt;/a&gt;\n &lt;a href=&quot;\nhttp://i.imgur.com/1EWTLwY.jpg&quot; rel=&quot;nofollow&quot; target=&quot;_NEW&quot;&gt;\nhttp://i.imgur.com/1EWTLwY.jpg&lt;/a&gt;\n &lt;a href=&quot;\nhttp://i.imgur.com/e0NJd1B.jpg&quot; rel=&quot;nofollow&quot; target=&quot;_NEW&quot;&gt;\nhttp://i.imgur.com/e0NJd1B.jpg&lt;/a&gt;\n &lt;a href=&quot;\nhttp://i.imgur.com/y1ztjxa.jpg&quot; rel=&quot;nofollow&quot; target=&quot;_NEW&quot;&gt;\nhttp://i.imgur.com/y1ztjxa.jpg&lt;/a&gt;\n &lt;a href=&quot;\nhttp://i.imgur.com/tKHj18H.jpg&quot; rel=&quot;nofollow&quot; target=&quot;_NEW&quot;&gt;\nhttp://i.imgur.com/tKHj18H.jpg&lt;/a&gt;\n\n\nSAMPLE AND SCREENSHOTS INCLUDED\n\n    \n             \n               ********** PLEASE SEED AS LONG AS YOU CAN AFTER DOWNLOAD **********\n       \n                        ***** THANK YOU REGARDS - VIKKYMAXX (SilverRG) *****\n\n\n\n","torrent":{"xt":"urn:btih:2eee560c1a4f93a079a6a2929eda4aed49fb17fa","amp;dn":"Bhoothnath+Returns+%282014%29+DVDScr+-+XviD+-+Mp3+-+1CD%7BVikkyMaxx%7D%5BS","amp;tr":["udp%3A%2F%2Ftracker.openbittorrent.com%3A80","udp%3A%2F%2Fopen.demonii.com%3A1337","udp%3A%2F%2Ftracker.coppersurfer.tk%3A6969","udp%3A%2F%2Fexodus.desync.com%3A6969"],"infoHash":"2eee560c1a4f93a079a6a2929eda4aed49fb17fa","infoHashBuffer":{"type":"Buffer","data":[46,238,86,12,26,79,147,160,121,166,162,146,158,218,74,237,73,251,23,250]},"announce":[],"urlList":[]}}